PathFileType	4	(X / Y / Z)	Demo_140333_11_September_2019	Demo_140333_11_September_2019.trc
DataRate	CameraRate	NumFrames	NumMarkers	Units	OrigDataRate	OrigDataStartFrame	OrigNumFrames
50	50	14	25	m	50	650	960
Frame#	Time		SpineBase		SpineMid		Neck		Head		ShoulderLeft		ElbowLeft		WristLeft		HandLeft		ShoulderRight		ElbowRight		WristRight		HandRight		HipLeft		KneeLeft		AnkleLeft		FootLeft		HipRight		KneeRight		AnkleRight		FootRight		SpineShoulder		HandTipLeft		LeftThumb		HandTipRight		ThumbRight		
X1	Y1	Z1	X2	Y2	Z2	X3	Y3	Z3	X4	Y4	Z4	X5	Y5	Z5	X6	Y6	Z6	X7	Y7	Z7	X8	Y8	Z8	X9	Y9	Z9	X10	Y10	Z10	X11	Y11	Z11	X12	Y12	Z12	X13	Y13	Z13	X14	Y14	Z14	X15	Y15	Z15	X16	Y16	Z16	X17	Y17	Z17	X18	Y18	Z18	X19	Y19	Z19	X20	Y20	Z20	X21	Y21	Z21	X22	Y22	Z22	X23	Y23	Z23	X24	Y24	Z24	X25	Y25	Z25	
601	59.986	0.041	0.791	1.756	0.042	1.074	1.733	0.040	1.350	1.695	0.039	1.490	1.669	-0.110	1.238	1.693	-0.173	0.993	1.724	-0.228	0.806	1.685	-0.224	0.746	1.690	0.217	1.272	1.683	0.427	1.231	1.654	0.641	1.202	1.612	0.726	1.187	1.605	-0.034	0.796	1.722	-0.096	0.492	1.755	-0.119	0.139	1.887	-0.122	0.114	1.820	0.113	0.793	1.723	0.111	0.488	1.773	0.082	0.209	1.865	0.078	0.169	1.744	0.041	1.282	1.707	-0.224	0.684	1.674	-0.252	0.759	1.693	0.780	1.168	1.591	0.741	1.160	1.540
602	60.003	0.041	0.791	1.756	0.042	1.074	1.733	0.040	1.350	1.695	0.039	1.490	1.669	-0.110	1.238	1.693	-0.173	0.993	1.724	-0.228	0.806	1.685	-0.224	0.746	1.690	0.217	1.272	1.683	0.427	1.231	1.654	0.641	1.202	1.612	0.726	1.187	1.605	-0.034	0.796	1.722	-0.096	0.492	1.755	-0.119	0.139	1.887	-0.122	0.114	1.820	0.113	0.793	1.723	0.111	0.488	1.773	0.082	0.209	1.865	0.078	0.169	1.744	0.041	1.282	1.707	-0.224	0.684	1.674	-0.252	0.759	1.693	0.780	1.168	1.591	0.741	1.160	1.540
603	60.020	0.041	0.791	1.756	0.042	1.075	1.733	0.040	1.350	1.694	0.040	1.490	1.669	-0.110	1.238	1.692	-0.173	0.993	1.724	-0.226	0.805	1.686	-0.223	0.745	1.690	0.217	1.271	1.683	0.420	1.156	1.667	0.618	1.078	1.631	0.710	1.049	1.639	-0.034	0.797	1.722	-0.096	0.492	1.754	-0.120	0.137	1.888	-0.122	0.113	1.823	0.113	0.794	1.723	0.110	0.488	1.773	0.082	0.208	1.865	0.078	0.169	1.744	0.040	1.282	1.707	-0.223	0.682	1.676	-0.252	0.758	1.694	0.770	1.003	1.623	0.730	1.009	1.580
604	60.037	0.041	0.791	1.756	0.042	1.075	1.733	0.040	1.350	1.694	0.040	1.490	1.669	-0.110	1.238	1.692	-0.173	0.993	1.724	-0.226	0.805	1.686	-0.223	0.745	1.690	0.217	1.271	1.683	0.420	1.156	1.667	0.618	1.078	1.631	0.710	1.049	1.639	-0.034	0.797	1.722	-0.096	0.492	1.754	-0.120	0.137	1.888	-0.122	0.113	1.823	0.113	0.794	1.723	0.110	0.488	1.773	0.082	0.208	1.865	0.078	0.169	1.744	0.040	1.282	1.707	-0.223	0.682	1.676	-0.252	0.758	1.694	0.770	1.003	1.623	0.730	1.009	1.580
605	60.053	0.041	0.791	1.756	0.042	1.075	1.733	0.040	1.350	1.694	0.040	1.490	1.669	-0.110	1.238	1.692	-0.173	0.994	1.724	-0.225	0.805	1.687	-0.223	0.745	1.688	0.215	1.266	1.685	0.404	1.084	1.679	0.580	0.975	1.659	0.663	0.917	1.676	-0.034	0.797	1.721	-0.096	0.492	1.754	-0.118	0.160	1.879	-0.119	0.126	1.791	0.113	0.794	1.724	0.109	0.488	1.773	0.081	0.208	1.865	0.079	0.168	1.744	0.040	1.282	1.706	-0.221	0.682	1.677	-0.251	0.757	1.695	0.731	0.836	1.673	0.682	0.867	1.629
606	60.070	0.041	0.791	1.756	0.042	1.075	1.733	0.040	1.350	1.694	0.040	1.490	1.669	-0.110	1.238	1.692	-0.173	0.994	1.724	-0.225	0.805	1.687	-0.223	0.745	1.688	0.215	1.266	1.685	0.404	1.084	1.679	0.580	0.975	1.659	0.663	0.917	1.676	-0.034	0.797	1.721	-0.096	0.492	1.754	-0.118	0.160	1.879	-0.119	0.126	1.791	0.113	0.794	1.724	0.109	0.488	1.773	0.081	0.208	1.865	0.079	0.168	1.744	0.040	1.282	1.706	-0.221	0.682	1.677	-0.251	0.757	1.695	0.731	0.836	1.673	0.682	0.867	1.629
607	60.087	0.041	0.791	1.756	0.042	1.075	1.733	0.040	1.350	1.694	0.040	1.490	1.669	-0.110	1.239	1.692	-0.173	0.994	1.724	-0.225	0.804	1.688	-0.225	0.746	1.683	0.213	1.255	1.686	0.382	1.015	1.691	0.527	0.871	1.694	0.567	0.819	1.699	-0.034	0.797	1.722	-0.096	0.492	1.754	-0.118	0.158	1.880	-0.119	0.125	1.794	0.113	0.793	1.725	0.109	0.488	1.774	0.081	0.207	1.865	0.079	0.168	1.744	0.040	1.283	1.706	-0.221	0.681	1.677	-0.252	0.756	1.695	0.622	0.723	1.705	0.574	0.770	1.661
608	60.103	0.041	0.791	1.756	0.042	1.075	1.733	0.040	1.350	1.694	0.040	1.490	1.669	-0.110	1.239	1.692	-0.173	0.994	1.724	-0.225	0.804	1.688	-0.225	0.746	1.683	0.213	1.255	1.686	0.382	1.015	1.691	0.527	0.871	1.694	0.567	0.819	1.699	-0.034	0.797	1.722	-0.096	0.492	1.754	-0.118	0.158	1.880	-0.119	0.125	1.794	0.113	0.793	1.725	0.109	0.488	1.774	0.081	0.207	1.865	0.079	0.168	1.744	0.040	1.283	1.706	-0.221	0.681	1.677	-0.252	0.756	1.695	0.622	0.723	1.705	0.574	0.770	1.661
609	60.120	0.041	0.790	1.757	0.041	1.075	1.733	0.039	1.350	1.694	0.040	1.490	1.669	-0.110	1.239	1.692	-0.174	0.994	1.724	-0.224	0.804	1.687	-0.228	0.749	1.675	0.211	1.248	1.687	0.319	0.957	1.699	0.448	0.817	1.708	0.459	0.776	1.710	-0.033	0.796	1.722	-0.096	0.492	1.754	-0.118	0.155	1.881	-0.119	0.124	1.798	0.113	0.792	1.726	0.109	0.487	1.775	0.081	0.206	1.865	0.079	0.168	1.744	0.040	1.283	1.706	-0.221	0.680	1.676	-0.253	0.756	1.693	0.493	0.672	1.726	0.466	0.684	1.687
610	60.137	0.041	0.790	1.757	0.041	1.075	1.733	0.039	1.350	1.694	0.040	1.490	1.669	-0.110	1.239	1.692	-0.174	0.994	1.724	-0.224	0.804	1.687	-0.228	0.749	1.675	0.211	1.248	1.687	0.319	0.957	1.699	0.448	0.817	1.708	0.459	0.776	1.710	-0.033	0.796	1.722	-0.096	0.492	1.754	-0.118	0.155	1.881	-0.119	0.124	1.798	0.113	0.792	1.726	0.109	0.487	1.775	0.081	0.206	1.865	0.079	0.168	1.744	0.040	1.283	1.706	-0.221	0.680	1.676	-0.253	0.756	1.693	0.493	0.672	1.726	0.466	0.684	1.687
611	60.153	0.041	0.789	1.757	0.041	1.075	1.733	0.039	1.350	1.694	0.041	1.490	1.668	-0.110	1.239	1.691	-0.174	0.994	1.724	-0.225	0.804	1.684	-0.232	0.753	1.666	0.208	1.238	1.685	0.284	0.948	1.701	0.379	0.775	1.717	0.380	0.716	1.722	-0.033	0.795	1.722	-0.097	0.491	1.754	-0.119	0.152	1.882	-0.120	0.122	1.803	0.114	0.791	1.726	0.109	0.485	1.776	0.081	0.206	1.865	0.079	0.168	1.744	0.040	1.283	1.706	-0.222	0.681	1.672	-0.255	0.757	1.690	0.383	0.613	1.744	0.358	0.626	1.709
612	60.170	0.041	0.789	1.757	0.041	1.075	1.733	0.039	1.350	1.694	0.041	1.490	1.668	-0.110	1.239	1.691	-0.174	0.994	1.724	-0.225	0.804	1.684	-0.232	0.753	1.666	0.208	1.238	1.685	0.284	0.948	1.701	0.379	0.775	1.717	0.380	0.716	1.722	-0.033	0.795	1.722	-0.097	0.491	1.754	-0.119	0.152	1.882	-0.120	0.122	1.803	0.114	0.791	1.726	0.109	0.485	1.776	0.081	0.206	1.865	0.079	0.168	1.744	0.040	1.283	1.706	-0.222	0.681	1.672	-0.255	0.757	1.690	0.383	0.613	1.744	0.358	0.626	1.709
613	60.187	0.041	0.788	1.758	0.041	1.075	1.733	0.040	1.350	1.694	0.041	1.491	1.668	-0.110	1.239	1.691	-0.174	0.994	1.724	-0.227	0.805	1.680	-0.236	0.757	1.658	0.206	1.233	1.684	0.265	0.934	1.703	0.352	0.765	1.723	0.334	0.696	1.736	-0.033	0.794	1.723	-0.097	0.491	1.754	-0.119	0.148	1.883	-0.121	0.120	1.809	0.114	0.789	1.727	0.109	0.484	1.777	0.081	0.205	1.865	0.079	0.168	1.744	0.040	1.283	1.706	-0.225	0.682	1.666	-0.258	0.760	1.685	0.323	0.588	1.765	0.301	0.628	1.723
614	60.204	0.041	0.788	1.758	0.041	1.075	1.733	0.040	1.350	1.694	0.041	1.491	1.668	-0.110	1.239	1.691	-0.174	0.994	1.724	-0.227	0.805	1.680	-0.236	0.757	1.658	0.206	1.233	1.684	0.265	0.934	1.703	0.352	0.765	1.723	0.334	0.696	1.736	-0.033	0.794	1.723	-0.097	0.491	1.754	-0.119	0.148	1.883	-0.121	0.120	1.809	0.114	0.789	1.727	0.109	0.484	1.777	0.081	0.205	1.865	0.079	0.168	1.744	0.040	1.283	1.706	-0.225	0.682	1.666	-0.258	0.760	1.685	0.323	0.588	1.765	0.301	0.628	1.723
